<?xml version="1.0" standalone="no"?>
<!DOCTYPE svg PUBLIC "-//W3C//DTD SVG 20010904//EN"
 "http://www.w3.org/TR/2001/REC-SVG-20010904/DTD/svg10.dtd">
<svg version="1.0" xmlns="http://www.w3.org/2000/svg"
 width="2550.000000pt" height="1650.000000pt" viewBox="0 0 2550.000000 1650.000000"
 preserveAspectRatio="xMidYMid meet">

<g transform="translate(0.000000,1650.000000) scale(0.100000,-0.100000)"
fill="#000000" stroke="none">
<path d="M5381 10150 c-192 -404 -315 -830 -378 -1315 -23 -177 -26 -780 -5
-970 45 -400 145 -812 282 -1155 38 -96 156 -359 164 -368 5 -4 536 268 536
274 0 2 -20 44 -44 92 -133 265 -246 625 -306 977 -67 395 -67 900 1 1285 58
333 179 702 318 979 l29 56 -260 135 c-142 74 -263 136 -267 138 -4 1 -36 -56
-70 -128z"/>
<path d="M6438 9728 c-176 -336 -288 -719 -328 -1117 -15 -151 -12 -450 5
-617 38 -360 133 -702 281 -1013 l64 -133 72 40 c40 21 159 85 265 141 l191
102 -55 115 c-220 464 -289 1046 -186 1569 33 168 108 399 178 543 30 63 55
118 55 122 0 5 -93 59 -207 121 -115 62 -231 125 -260 141 l-52 29 -23 -43z"/>
<path d="M8195 9529 c-515 -66 -928 -477 -1017 -1013 -17 -101 -14 -324 5
-431 80 -445 379 -801 789 -941 255 -87 555 -80 791 17 73 30 218 122 251 158
11 12 23 21 28 21 4 0 8 -220 8 -490 l0 -490 285 0 285 0 0 1560 0 1560 -260
0 -260 0 0 -139 0 -139 -88 86 c-90 90 -159 137 -260 178 -160 65 -362 87
-557 63z m399 -535 c161 -41 319 -165 401 -315 72 -133 107 -319 87 -467 -33
-247 -160 -436 -357 -533 -110 -54 -180 -70 -305 -70 -240 0 -441 103 -563
289 -90 137 -122 263 -115 450 6 136 34 237 95 341 46 79 150 184 226 229 154
92 354 120 531 76z"/>
<path d="M13670 9534 c-14 -2 -59 -9 -100 -15 -237 -35 -486 -163 -665 -343
-235 -236 -355 -533 -355 -875 0 -262 71 -489 220 -700 141 -199 381 -374 620
-451 212 -68 477 -84 677 -41 324 68 587 238 750 484 44 67 113 209 113 235 0
9 -67 12 -301 12 l-302 0 -68 -64 c-37 -35 -87 -76 -112 -90 -195 -115 -538
-104 -733 22 -114 74 -211 200 -242 315 l-10 37 903 0 c850 0 903 1 910 18 4
9 10 82 13 162 12 385 -116 721 -370 965 -174 168 -348 259 -592 310 -77 15
-306 28 -356 19z m338 -545 c170 -43 300 -145 372 -292 22 -45 42 -94 46 -109
l6 -28 -641 0 c-542 0 -641 2 -641 14 0 8 20 55 45 105 96 191 263 303 493
331 90 11 231 2 320 -21z"/>
<path d="M18863 9529 c-491 -57 -909 -419 -1037 -897 -190 -710 252 -1396 984
-1528 127 -23 355 -24 472 -1 388 76 699 305 843 620 18 39 36 82 39 95 l7 22
-307 0 -307 0 -73 -70 c-128 -121 -238 -161 -447 -161 -211 0 -363 57 -488
181 -64 63 -128 171 -145 243 l-6 27 905 0 906 0 8 48 c14 81 7 329 -11 427
-36 188 -113 373 -212 512 -251 352 -679 535 -1131 482z m263 -520 c266 -29
437 -156 520 -384 l24 -65 -645 0 -644 0 14 41 c45 126 146 256 248 317 74 45
181 81 269 91 105 12 109 12 214 0z"/>
<path d="M10110 8843 c0 -645 7 -848 36 -1003 56 -313 189 -530 397 -649 175
-100 460 -135 698 -86 128 27 241 85 356 182 34 29 67 53 73 53 6 0 10 -38 10
-100 l0 -100 260 0 260 0 0 1170 0 1170 -284 0 -285 0 -4 -717 c-4 -784 -4
-782 -64 -911 -49 -104 -163 -194 -289 -227 -77 -21 -242 -21 -311 0 -103 31
-181 115 -223 240 -50 150 -52 185 -57 923 l-5 692 -284 0 -284 0 0 -637z"/>
<path d="M15353 8723 c4 -822 4 -827 62 -1027 71 -245 201 -420 384 -515 152
-79 359 -113 560 -92 193 20 315 70 465 192 l86 69 0 -105 0 -105 265 0 265 0
0 1170 0 1170 -285 0 -285 0 0 -622 c0 -621 -7 -788 -36 -903 -61 -243 -274
-375 -554 -344 -187 21 -280 119 -332 351 -21 89 -22 123 -25 806 l-4 712
-285 0 -285 0 4 -757z"/>
<path d="M20070 6510 c0 -137 -3 -250 -6 -250 -3 0 -31 20 -62 44 -107 82
-203 116 -334 116 -159 0 -288 -51 -391 -153 -106 -105 -157 -230 -157 -382 0
-150 49 -271 152 -374 107 -107 243 -161 409 -161 145 0 262 50 344 148 15 17
31 32 36 32 5 0 9 -36 9 -80 l0 -80 70 0 70 0 0 695 0 695 -70 0 -70 0 0 -250z
m-245 -259 c132 -61 217 -177 238 -324 24 -170 -63 -331 -223 -410 -60 -30
-72 -32 -170 -32 -97 0 -110 2 -170 31 -126 61 -198 152 -226 285 -29 135 10
271 105 368 116 119 297 152 446 82z"/>
<path d="M16521 6404 c-85 -23 -184 -81 -249 -145 -103 -103 -152 -224 -152
-374 0 -151 47 -263 154 -371 114 -114 239 -164 409 -164 149 0 273 49 368
145 51 52 129 158 129 176 0 5 -34 9 -75 9 l-75 0 -67 -69 c-73 -74 -110 -97
-188 -117 -289 -77 -563 182 -501 475 35 168 157 284 330 314 151 26 321 -47
396 -168 l22 -35 79 0 c43 0 79 3 79 6 0 3 -14 32 -31 65 -62 115 -197 217
-336 253 -75 20 -219 20 -292 0z"/>
<path d="M17733 6405 c-138 -37 -271 -143 -332 -263 -112 -222 -69 -492 103
-649 114 -105 241 -148 418 -141 95 4 113 8 171 36 36 18 89 55 118 82 29 28
57 50 61 50 4 0 8 -34 8 -75 l0 -75 70 0 70 0 0 515 0 515 -70 0 -70 0 0 -75
c0 -41 -4 -75 -9 -75 -6 0 -32 22 -60 48 -55 52 -133 95 -202 111 -63 15 -215
12 -276 -4z m235 -125 c305 -71 411 -452 191 -685 -29 -31 -76 -67 -108 -82
-51 -25 -66 -28 -166 -28 -101 0 -115 2 -170 29 -119 59 -201 171 -225 309
-48 276 206 519 478 457z"/>
<path d="M18995 6411 c-54 -13 -108 -44 -144 -83 -20 -21 -39 -38 -43 -38 -5
0 -8 25 -8 55 l0 55 -70 0 -70 0 0 -515 0 -515 70 0 70 0 0 308 c0 316 7 398
40 462 36 69 115 121 208 136 l42 7 0 68 0 69 -32 -1 c-18 -1 -46 -4 -63 -8z"/>
</g>
</svg>
